<svg width="26" height="26" viewBox="0 0 26 26" fill="none" xmlns="http://www.w3.org/2000/svg">
<path d="M19.6516 23.4216C18.6983 23.7033 17.5716 23.8333 16.25 23.8333H9.74996C8.42829 23.8333 7.30163 23.7033 6.34829 23.4216M19.6516 23.4216C19.4133 20.605 16.5208 18.3841 13 18.3841C9.47913 18.3841 6.58663 20.605 6.34829 23.4216M19.6516 23.4216C22.5983 22.5875 23.8333 20.345 23.8333 16.25V9.74996C23.8333 4.33329 21.6666 2.16663 16.25 2.16663H9.74996C4.33329 2.16663 2.16663 4.33329 2.16663 9.74996V16.25C2.16663 20.345 3.40163 22.5875 6.34829 23.4216M13 15.3508C10.855 15.3508 9.12162 13.6066 9.12162 11.4616C9.12162 9.31664 10.855 7.58329 13 7.58329C15.145 7.58329 16.8783 9.31664 16.8783 11.4616C16.8783 13.6066 15.145 15.3508 13 15.3508Z" stroke="#292D32" stroke-width="1.5" stroke-linecap="round" stroke-linejoin="round"/>
</svg>
